<svg xmlns="http://www.w3.org/2000/svg" xmlns:xlink="http://www.w3.org/1999/xlink" viewBox="0 0 483.28 311.34">
  <defs>
    <style>
      .cls-1 {
        isolation: isolate;
      }

      .cls-2 {
        fill: url(#linear-gradient);
      }

      .cls-18, .cls-3, .cls-5, .cls-6, .cls-7 {
        mix-blend-mode: multiply;
      }

      .cls-3 {
        fill: url(#linear-gradient-2);
      }

      .cls-17, .cls-4 {
        fill: none;
        stroke-linecap: round;
      }

      .cls-4 {
        stroke: #fff;
      }

      .cls-17, .cls-25, .cls-4 {
        stroke-miterlimit: 10;
      }

      .cls-5 {
        fill: url(#linear-gradient-3);
      }

      .cls-6 {
        fill: url(#linear-gradient-4);
      }

      .cls-7 {
        fill: url(#linear-gradient-5);
      }

      .cls-8 {
        fill: #cfdbff;
      }

      .cls-9 {
        fill: #8885f7;
      }

      .cls-10 {
        fill: #b4b3fc;
      }

      .cls-11 {
        fill: #8385fc;
      }

      .cls-12 {
        fill: url(#linear-gradient-6);
      }

      .cls-13 {
        fill: url(#linear-gradient-7);
      }

      .cls-14 {
        fill: #0e225c;
      }

      .cls-15 {
        fill: #fff;
      }

      .cls-16 {
        fill: #a6abfd;
      }

      .cls-17 {
        stroke: #b0b1fb;
      }

      .cls-18 {
        fill: url(#linear-gradient-8);
      }

      .cls-19 {
        fill: #fa8fa4;
      }

      .cls-20 {
        fill: #fa8098;
      }

      .cls-21 {
        fill: #0a0a0f;
      }

      .cls-22 {
        fill: #2e112e;
      }

      .cls-23, .cls-25 {
        fill: #173796;
      }

      .cls-24 {
        fill: #6970fb;
      }

      .cls-25 {
        stroke: #0a0a0f;
      }

      .cls-26 {
        fill: url(#linear-gradient-9);
      }

      .cls-27 {
        fill: url(#linear-gradient-10);
      }
    </style>
    <linearGradient id="linear-gradient" x1="0.81" y1="157.43" x2="394.3" y2="157.43" gradientUnits="userSpaceOnUse">
      <stop offset="0" stop-color="#919dff"/>
      <stop offset="1" stop-color="#ffe5f5"/>
    </linearGradient>
    <linearGradient id="linear-gradient-2" x1="79.31" y1="101.58" x2="100.56" y2="273.53" xlink:href="#linear-gradient"/>
    <linearGradient id="linear-gradient-3" x1="-44.76" y1="150.37" x2="32.05" y2="285.31" xlink:href="#linear-gradient"/>
    <linearGradient id="linear-gradient-4" x1="199.63" y1="279.62" x2="235.03" y2="279.62" xlink:href="#linear-gradient"/>
    <linearGradient id="linear-gradient-5" x1="54.29" y1="182.01" x2="67.37" y2="287.88" xlink:href="#linear-gradient"/>
    <linearGradient id="linear-gradient-6" x1="263.06" y1="215.14" x2="422.96" y2="215.14" xlink:href="#linear-gradient"/>
    <linearGradient id="linear-gradient-7" x1="277.86" y1="306.57" x2="477.74" y2="136.03" xlink:href="#linear-gradient"/>
    <linearGradient id="linear-gradient-8" x1="202.05" y1="156.03" x2="181.65" y2="304.74" xlink:href="#linear-gradient"/>
    <linearGradient id="linear-gradient-9" x1="234.37" y1="242.13" x2="244.06" y2="242.13" xlink:href="#linear-gradient"/>
    <linearGradient id="linear-gradient-10" x1="224.72" y1="254.24" x2="236.99" y2="254.24" xlink:href="#linear-gradient"/>
  </defs>
  <g class="cls-1">
    <g id="OBJECTS">
      <path class="cls-2" d="M.81,5.24S81.22-14,142.76,38.06c85.1,72,28.61,177.42,127.19,168.85C374.2,197.84,394.3,313.1,394.3,313.1H.81Z" transform="translate(-0.81 -1.76)"/>
      <g>
        <path class="cls-3" d="M79.18,307.21S56.83,127,92.55,116.53c38.26-11.26,7,190.68,7,190.68Z" transform="translate(-0.81 -1.76)"/>
        <path class="cls-4" d="M93.43,139.37a745.52,745.52,0,0,0,2,121.42" transform="translate(-0.81 -1.76)"/>
      </g>
      <g>
        <path class="cls-5" d="M50.29,306.43c-.11,0-5.34-109.68-49.48-138.81V306.43Z" transform="translate(-0.81 -1.76)"/>
        <path class="cls-4" d="M7.39,218.57s14.34,33.07,19.93,87.86" transform="translate(-0.81 -1.76)"/>
      </g>
      <path class="cls-6" d="M199.63,306.43s10.19-58,28.91-53.36c21.27,5.24-16.51,53.36-16.51,53.36Z" transform="translate(-0.81 -1.76)"/>
      <path class="cls-7" d="M84.37,306.43s-5.31-82.05-28.43-114.51c0,0-23.6,45.59,6.24,114.06Z" transform="translate(-0.81 -1.76)"/>
      <path class="cls-8" d="M229.05,147.39h0a3.13,3.13,0,0,1-.52-4.4l2.67-3.38c1.08-1.35,2.49-2.14,3.84-1.06,0,0,2.53,2.49,4.2,1.72,1.9-.88,5.58-5,7.4-7.9,1.28-2.07-2.81-5.23-2.81-5.23-1.36-1.07-.9-2.35.17-3.71l2.67-3.38a3.14,3.14,0,0,1,4.4-.51h0C261.66,127.94,243.17,154.82,229.05,147.39Z" transform="translate(-0.81 -1.76)"/>
      <rect class="cls-9" x="365.42" y="288.65" width="86.76" height="16.02"/>
      <rect class="cls-10" x="375.02" y="279.29" width="67.56" height="9.36"/>
      <g>
        <path class="cls-11" d="M386.09,265.8H261.61a2.55,2.55,0,0,1-2.47-3.22l25.06-92.21a8,8,0,0,1,7.71-5.89H416.4a2.55,2.55,0,0,1,2.46,3.22L393.8,259.91A8,8,0,0,1,386.09,265.8Z" transform="translate(-0.81 -1.76)"/>
        <path class="cls-12" d="M390.1,265.8H265.62a2.55,2.55,0,0,1-2.47-3.22l25.06-92.21a8,8,0,0,1,7.71-5.89H420.41a2.55,2.55,0,0,1,2.46,3.22l-25.06,92.21A8,8,0,0,1,390.1,265.8Z" transform="translate(-0.81 -1.76)"/>
        <path class="cls-13" d="M331.39,217.23,312.91,292a11.94,11.94,0,0,1-11.58,9.06H286.14a2.68,2.68,0,0,0-2.69,2.68h0a2.68,2.68,0,0,0,2.69,2.68h40a10.48,10.48,0,0,0,10.2-8l19.15-79.87a2.74,2.74,0,0,0-2.67-3.38H334.06A2.76,2.76,0,0,0,331.39,217.23Z" transform="translate(-0.81 -1.76)"/>
      </g>
      <path class="cls-14" d="M480.79,313H.81v-6.6h480a3.3,3.3,0,0,1,3.3,3.3h0A3.3,3.3,0,0,1,480.79,313Z" transform="translate(-0.81 -1.76)"/>
      <path class="cls-15" d="M33.94,130.94a16.63,16.63,0,0,0-4.89,29.9l0,7.5,5.24-5.17a16.66,16.66,0,1,0-.31-32.23ZM33,150a1.49,1.49,0,0,1-.78-2.88A1.49,1.49,0,0,1,33,150Zm5.66-1.54a1.49,1.49,0,0,1-.78-2.87,1.49,1.49,0,0,1,.78,2.87Zm5.66-1.54a1.49,1.49,0,0,1-.78-2.87,1.49,1.49,0,0,1,.78,2.87Z" transform="translate(-0.81 -1.76)"/>
      <g>
        <path class="cls-15" d="M109.51,57l0,0a9.43,9.43,0,0,1-.87,7.92L108,66.27a6.85,6.85,0,0,0-.55,5.19l.74,2.49-2.3-2.59a8.2,8.2,0,0,1,.81-5.8l.69-1.27a8,8,0,0,0,.74-6.78,4.88,4.88,0,0,0-2.36-2.93,4.92,4.92,0,0,0-7.07,5.71l.41,1.38a1.48,1.48,0,0,1-.44,1.54l-1-1.11-.41-1.39a6.4,6.4,0,0,1,9.21-7.44A6.36,6.36,0,0,1,109.51,57Z" transform="translate(-0.81 -1.76)"/>
        <g>
          <path class="cls-15" d="M110.94,56.59l0,.17a10.87,10.87,0,0,1-1,8.95l-.7,1.27a5.3,5.3,0,0,0-.43,4l.74,2.5a1.49,1.49,0,0,1-1,1.85,1.48,1.48,0,0,1-1.85-1L106,71.88c0-.17-.09-.35-.13-.52a8.2,8.2,0,0,1,.81-5.8l.69-1.27a8,8,0,0,0,.74-6.78,4.88,4.88,0,0,0-2.36-2.93,4.92,4.92,0,0,0-7.07,5.71l.41,1.38a1.48,1.48,0,0,1-.44,1.54,1.59,1.59,0,0,1-.57.32,1.49,1.49,0,0,1-1.85-1l-.41-1.39a7.9,7.9,0,0,1,15.13-4.54Z" transform="translate(-0.81 -1.76)"/>
          <path class="cls-15" d="M111.22,78.27a1.64,1.64,0,1,1-2-1.1A1.64,1.64,0,0,1,111.22,78.27Z" transform="translate(-0.81 -1.76)"/>
        </g>
      </g>
      <g>
        <polygon class="cls-15" points="57.78 92.6 37.59 87.11 41.18 73.89 49.48 83.24 61.38 79.37 57.78 92.6"/>
        <polygon class="cls-15" points="52.66 71.55 45.14 69.51 43.76 74.59 49.94 81.56 58.79 78.67 60.17 73.59 52.66 71.55"/>
        <rect class="cls-16" x="46.87" y="75.45" width="11.84" height="0.43" transform="translate(20.87 -12.96) rotate(15.2)"/>
        <rect class="cls-16" x="46.29" y="77.56" width="11.84" height="0.43" transform="translate(21.4 -12.73) rotate(15.2)"/>
      </g>
      <path class="cls-4" d="M38.31,37.7a2.64,2.64,0,1,1-2.64-2.64A2.64,2.64,0,0,1,38.31,37.7Z" transform="translate(-0.81 -1.76)"/>
      <path class="cls-4" d="M148.87,75.66A2.64,2.64,0,1,1,146.23,73,2.64,2.64,0,0,1,148.87,75.66Z" transform="translate(-0.81 -1.76)"/>
      <path class="cls-17" d="M217.1,110a2.64,2.64,0,1,1-2.64-2.64A2.64,2.64,0,0,1,217.1,110Z" transform="translate(-0.81 -1.76)"/>
      <g>
        <path class="cls-18" d="M167.83,306.43s-1.75-89.72,34.26-124c0,0,16.78,42.3-8.61,124.05Z" transform="translate(-0.81 -1.76)"/>
        <path class="cls-4" d="M193.74,209.48s2.64,36-10.14,89.52" transform="translate(-0.81 -1.76)"/>
      </g>
      <g>
        <polygon class="cls-19" points="146.11 158.77 145.42 167.79 145.18 170.75 144.46 180.26 124.53 180.61 126.8 160.91 127.97 150.75 128.54 145.85 146.11 158.77"/>
        <path class="cls-20" d="M146.23,169.56l-.24,2.95c-11.72,0-17.08-16.11-17.51-17.41l.3-2.58A35.39,35.39,0,0,0,146.23,169.56Z" transform="translate(-0.81 -1.76)"/>
        <path class="cls-19" d="M255.1,197.56s9.3-10.34,16.76-11.12c2.76-.29-1.91,5.54-1.91,5.54h31.4s-1.16,3.85-3.5,5.58-27.9,9.28-27.9,9.28Z" transform="translate(-0.81 -1.76)"/>
        <path class="cls-19" d="M159.92,125c2.71,2.07,7.22,4.42,7.87,7.76.57,3-5.46,12.93-2.61,16.77,5.32,7.12-5.61,17.18-9.49,19.86-9.32,6.42-33.23-12.5-25.14-37C136.7,113.73,152.06,119,159.92,125Z" transform="translate(-0.81 -1.76)"/>
        <path class="cls-21" d="M131.74,121.72s25.09,17.38,37.47,10,.63-22,.63-22-2.75,5.11-11.76,2.14S132.4,107,131.74,121.72Z" transform="translate(-0.81 -1.76)"/>
        <path class="cls-21" d="M142.53,119.9s-5.92-8.51-13.86-3.53c-6,3.8-4.73,24.89.72,32.91C129.39,149.28,129.53,124.51,142.53,119.9Z" transform="translate(-0.81 -1.76)"/>
        <path class="cls-21" d="M146.66,125.23s-5,12-10.63,15c0,0,.51,6.47-5.34,6.49,0,0,1.77-2-.12-6.57a14.57,14.57,0,0,1-.92-3.07c-1.14-6.2,4.26-17.67,10.31-17S146.66,125.23,146.66,125.23Z" transform="translate(-0.81 -1.76)"/>
        <path class="cls-19" d="M130.75,149.84s-4.27.47-6-3c-3.09-6.26,3.7-10,5.83-6.7Z" transform="translate(-0.81 -1.76)"/>
        <path class="cls-15" d="M147.18,153.11s2.21,10.5,8,8.36c3.86-1.44,6.28-7.18,6.28-7.18Z" transform="translate(-0.81 -1.76)"/>
        <path class="cls-22" d="M149.78,142.2c-.08,1.09-.5,1.94-.94,1.9s-.72-.94-.63-2,.5-1.93.94-1.9S149.87,141.12,149.78,142.2Z" transform="translate(-0.81 -1.76)"/>
        <path class="cls-22" d="M162.72,143.35c-.08,1.09-.5,1.94-.94,1.9s-.72-.93-.64-2,.51-1.93.94-1.9S162.8,142.27,162.72,143.35Z" transform="translate(-0.81 -1.76)"/>
        <path class="cls-23" d="M84.37,306.43s-27.95-89.21.91-109,47.93-23.59,77.46-11.69,14.11,120.73,14.11,120.73Z" transform="translate(-0.81 -1.76)"/>
        <path class="cls-23" d="M153.54,225.86l46,41.79A26,26,0,0,0,239.79,261L270,206.84l-14.85-9.28s-29.7,34.8-34.81,32-27-50.76-84.16-50.64C108.7,179,153.54,225.86,153.54,225.86Z" transform="translate(-0.81 -1.76)"/>
        <path class="cls-23" d="M85.28,197.39s-28.95,22.54-46.51,66.53a31,31,0,0,0,28.72,42.51H132l-1.23-20-45-23S132.82,222.46,85.28,197.39Z" transform="translate(-0.81 -1.76)"/>
        <path class="cls-24" d="M134.72,138.91s2.68-23.65,18-28.23a8.61,8.61,0,0,0-9.62-.72s-12.12,6.52-14.2,29.41Z" transform="translate(-0.81 -1.76)"/>
        <g>
          <path class="cls-21" d="M148.83,166.21a32.07,32.07,0,0,1-10.68-6.89,19.93,19.93,0,0,1-5.63-12.9l2.23-.1c0,.07.37,6.94,5.19,11.64a27,27,0,0,0,10.29,6.36l-.6,2.15S149.29,166.37,148.83,166.21Z" transform="translate(-0.81 -1.76)"/>
          <path class="cls-21" d="M148,163.53a2.5,2.5,0,0,0,1.51,2.93,2.11,2.11,0,0,0,1.42-4A2.28,2.28,0,0,0,148,163.53Z" transform="translate(-0.81 -1.76)"/>
        </g>
        <ellipse class="cls-23" cx="128.62" cy="141.53" rx="9.88" ry="11.03"/>
        <ellipse class="cls-9" cx="125.43" cy="141.53" rx="8.8" ry="9.82"/>
        <path class="cls-15" d="M119.54,180.49,126.77,170l12.54,8.92,6.68-6.43,6.35,7.76-7,8.11-6.07-6.82-5.47,7.93S124.92,186.6,119.54,180.49Z" transform="translate(-0.81 -1.76)"/>
        <path class="cls-25" d="M101.27,239.78,86,263.89a6.49,6.49,0,0,0,3.26,9.56l44.59,16.22" transform="translate(-0.81 -1.76)"/>
        <path class="cls-19" d="M132,306.43,133.84,293s23,6.63,24.44,7.86,5.64,5.59,5.64,5.59Z" transform="translate(-0.81 -1.76)"/>
        <line class="cls-4" x1="84.74" y1="90.38" x2="83.58" y2="97.97"/>
      </g>
      <line class="cls-4" x1="87.98" y1="94.78" x2="80.4" y2="93.57"/>
      <line class="cls-17" x1="276.94" y1="131.06" x2="275.77" y2="138.65"/>
      <line class="cls-17" x1="280.17" y1="135.46" x2="272.59" y2="134.24"/>
      <rect class="cls-4" x="16.12" y="104.45" width="6.11" height="6.11"/>
      <path class="cls-15" d="M250.83,267.46h-27a3,3,0,0,0-3,3v17.67a19.72,19.72,0,0,0,3.45,11.12l3.31,4.81a5.44,5.44,0,0,0,4.48,2.35h10.56a5.41,5.41,0,0,0,4.5-2.39l3.89-5.75a16.84,16.84,0,0,0,2.87-9.4V270.48A3,3,0,0,0,250.83,267.46Z" transform="translate(-0.81 -1.76)"/>
      <path class="cls-15" d="M233.88,293.1H218.82a9.23,9.23,0,0,1,0-18.45h15.06Zm-15.06-14.38a5.16,5.16,0,0,0,0,10.31h11V278.72Z" transform="translate(-0.81 -1.76)"/>
      <path class="cls-26" d="M238.3,256s-5.56-4.43-3.45-11.36,6.64-11.52,3.45-16.43c0,0,8,1.19,5.12,9.32S235.83,250.77,238.3,256Z" transform="translate(-0.81 -1.76)"/>
      <path class="cls-27" d="M232.76,242.13s-5.44,7.94,0,13.9c6.45,7.07,3.6,10.31,3.6,10.31s-2-3.14-7.31-6.62C224.4,256.68,220.91,246.72,232.76,242.13Z" transform="translate(-0.81 -1.76)"/>
    </g>
  </g>
</svg>
